<mxfile host="app.diagrams.net" agent="Mozilla/5.0 (Windows NT 10.0; Win64; x64) AppleWebKit/537.36 (KHTML, like Gecko) Chrome/128.0.0.0 Safari/537.36" version="24.7.8">
  <diagram name="Page-1" id="J34UUTQpZUb7Md4DEHor">
    <mxGraphModel dx="2580" dy="1126" grid="1" gridSize="10" guides="1" tooltips="1" connect="1" arrows="1" fold="1" page="1" pageScale="1" pageWidth="827" pageHeight="1169" math="0" shadow="0">
      <root>
        <mxCell id="0" />
        <mxCell id="1" parent="0" />
        <mxCell id="ro1XtTDIESp_CkTBeO06-13" style="edgeStyle=orthogonalEdgeStyle;rounded=0;orthogonalLoop=1;jettySize=auto;html=1;exitX=0.5;exitY=1;exitDx=0;exitDy=0;entryX=0.5;entryY=0;entryDx=0;entryDy=0;" edge="1" parent="1" source="ro1XtTDIESp_CkTBeO06-1" target="ro1XtTDIESp_CkTBeO06-6">
          <mxGeometry relative="1" as="geometry" />
        </mxCell>
        <mxCell id="ro1XtTDIESp_CkTBeO06-1" value="User" style="rounded=0;whiteSpace=wrap;html=1;" vertex="1" parent="1">
          <mxGeometry x="141" y="462" width="120" height="60" as="geometry" />
        </mxCell>
        <mxCell id="ro1XtTDIESp_CkTBeO06-2" value="Admin" style="rounded=0;whiteSpace=wrap;html=1;" vertex="1" parent="1">
          <mxGeometry x="651" y="464" width="120" height="60" as="geometry" />
        </mxCell>
        <mxCell id="ro1XtTDIESp_CkTBeO06-15" style="edgeStyle=orthogonalEdgeStyle;rounded=0;orthogonalLoop=1;jettySize=auto;html=1;entryX=1;entryY=0.5;entryDx=0;entryDy=0;" edge="1" parent="1" source="ro1XtTDIESp_CkTBeO06-3" target="ro1XtTDIESp_CkTBeO06-5">
          <mxGeometry relative="1" as="geometry" />
        </mxCell>
        <mxCell id="ro1XtTDIESp_CkTBeO06-3" value="Authenticator" style="rounded=0;whiteSpace=wrap;html=1;" vertex="1" parent="1">
          <mxGeometry x="651" y="710" width="120" height="60" as="geometry" />
        </mxCell>
        <mxCell id="ro1XtTDIESp_CkTBeO06-4" value="PDF" style="rounded=0;whiteSpace=wrap;html=1;" vertex="1" parent="1">
          <mxGeometry x="141" y="744" width="120" height="60" as="geometry" />
        </mxCell>
        <mxCell id="ro1XtTDIESp_CkTBeO06-16" style="edgeStyle=orthogonalEdgeStyle;rounded=0;orthogonalLoop=1;jettySize=auto;html=1;exitX=0;exitY=0.5;exitDx=0;exitDy=0;" edge="1" parent="1" source="ro1XtTDIESp_CkTBeO06-5" target="ro1XtTDIESp_CkTBeO06-4">
          <mxGeometry relative="1" as="geometry">
            <Array as="points">
              <mxPoint x="414" y="774" />
            </Array>
          </mxGeometry>
        </mxCell>
        <mxCell id="ro1XtTDIESp_CkTBeO06-5" value="verifies" style="rhombus;whiteSpace=wrap;html=1;" vertex="1" parent="1">
          <mxGeometry x="414" y="590" width="80" height="80" as="geometry" />
        </mxCell>
        <mxCell id="ro1XtTDIESp_CkTBeO06-14" style="edgeStyle=orthogonalEdgeStyle;rounded=0;orthogonalLoop=1;jettySize=auto;html=1;exitX=0.5;exitY=1;exitDx=0;exitDy=0;entryX=0.5;entryY=0;entryDx=0;entryDy=0;" edge="1" parent="1" source="ro1XtTDIESp_CkTBeO06-6" target="ro1XtTDIESp_CkTBeO06-4">
          <mxGeometry relative="1" as="geometry" />
        </mxCell>
        <mxCell id="ro1XtTDIESp_CkTBeO06-6" value="uploads" style="rhombus;whiteSpace=wrap;html=1;" vertex="1" parent="1">
          <mxGeometry x="161" y="604" width="80" height="80" as="geometry" />
        </mxCell>
        <mxCell id="ro1XtTDIESp_CkTBeO06-7" value="manage" style="rhombus;whiteSpace=wrap;html=1;" vertex="1" parent="1">
          <mxGeometry x="411" y="454" width="80" height="80" as="geometry" />
        </mxCell>
        <mxCell id="ro1XtTDIESp_CkTBeO06-12" style="edgeStyle=orthogonalEdgeStyle;rounded=0;orthogonalLoop=1;jettySize=auto;html=1;exitX=0.5;exitY=1;exitDx=0;exitDy=0;entryX=0.5;entryY=0;entryDx=0;entryDy=0;" edge="1" parent="1" source="ro1XtTDIESp_CkTBeO06-8" target="ro1XtTDIESp_CkTBeO06-3">
          <mxGeometry relative="1" as="geometry" />
        </mxCell>
        <mxCell id="ro1XtTDIESp_CkTBeO06-8" value="assign" style="rhombus;whiteSpace=wrap;html=1;" vertex="1" parent="1">
          <mxGeometry x="671" y="584" width="80" height="80" as="geometry" />
        </mxCell>
        <mxCell id="ro1XtTDIESp_CkTBeO06-21" value="Role" style="ellipse;whiteSpace=wrap;html=1;" vertex="1" parent="1">
          <mxGeometry x="50" y="248" width="80" height="30" as="geometry" />
        </mxCell>
        <mxCell id="ro1XtTDIESp_CkTBeO06-22" value="SubscriptionStatuse" style="ellipse;whiteSpace=wrap;html=1;" vertex="1" parent="1">
          <mxGeometry x="149" y="240" width="120" height="51" as="geometry" />
        </mxCell>
        <mxCell id="ro1XtTDIESp_CkTBeO06-24" value="password" style="ellipse;whiteSpace=wrap;html=1;" vertex="1" parent="1">
          <mxGeometry x="41" y="303" width="80" height="30" as="geometry" />
        </mxCell>
        <mxCell id="ro1XtTDIESp_CkTBeO06-25" value="download" style="ellipse;whiteSpace=wrap;html=1;" vertex="1" parent="1">
          <mxGeometry x="321" y="310" width="80" height="30" as="geometry" />
        </mxCell>
        <mxCell id="ro1XtTDIESp_CkTBeO06-26" value="bio" style="ellipse;whiteSpace=wrap;html=1;" vertex="1" parent="1">
          <mxGeometry x="330" y="354" width="80" height="30" as="geometry" />
        </mxCell>
        <mxCell id="ro1XtTDIESp_CkTBeO06-27" value="mobile-no." style="ellipse;whiteSpace=wrap;html=1;" vertex="1" parent="1">
          <mxGeometry x="331" y="424" width="80" height="30" as="geometry" />
        </mxCell>
        <mxCell id="ro1XtTDIESp_CkTBeO06-29" value="email" style="ellipse;whiteSpace=wrap;html=1;" vertex="1" parent="1">
          <mxGeometry x="31" y="373" width="80" height="30" as="geometry" />
        </mxCell>
        <mxCell id="ro1XtTDIESp_CkTBeO06-30" value="user_id" style="ellipse;whiteSpace=wrap;html=1;" vertex="1" parent="1">
          <mxGeometry x="10" y="424" width="80" height="30" as="geometry" />
        </mxCell>
        <mxCell id="ro1XtTDIESp_CkTBeO06-31" value="user_name" style="ellipse;whiteSpace=wrap;html=1;" vertex="1" parent="1">
          <mxGeometry x="33" y="336" width="80" height="30" as="geometry" />
        </mxCell>
        <mxCell id="ro1XtTDIESp_CkTBeO06-33" value="" style="endArrow=none;html=1;rounded=0;entryX=0.5;entryY=1;entryDx=0;entryDy=0;exitX=0.5;exitY=0;exitDx=0;exitDy=0;" edge="1" parent="1" source="ro1XtTDIESp_CkTBeO06-1" target="ro1XtTDIESp_CkTBeO06-22">
          <mxGeometry width="50" height="50" relative="1" as="geometry">
            <mxPoint x="161" y="434" as="sourcePoint" />
            <mxPoint x="214" y="304.9999999999998" as="targetPoint" />
          </mxGeometry>
        </mxCell>
        <mxCell id="ro1XtTDIESp_CkTBeO06-34" value="" style="endArrow=none;html=1;rounded=0;entryX=1;entryY=1;entryDx=0;entryDy=0;exitX=0.5;exitY=0;exitDx=0;exitDy=0;" edge="1" parent="1" source="ro1XtTDIESp_CkTBeO06-1" target="ro1XtTDIESp_CkTBeO06-30">
          <mxGeometry width="50" height="50" relative="1" as="geometry">
            <mxPoint x="161" y="434" as="sourcePoint" />
            <mxPoint x="211" y="384" as="targetPoint" />
          </mxGeometry>
        </mxCell>
        <mxCell id="ro1XtTDIESp_CkTBeO06-35" value="" style="endArrow=none;html=1;rounded=0;entryX=1;entryY=1;entryDx=0;entryDy=0;exitX=0.5;exitY=0;exitDx=0;exitDy=0;" edge="1" parent="1" source="ro1XtTDIESp_CkTBeO06-1" target="ro1XtTDIESp_CkTBeO06-31">
          <mxGeometry width="50" height="50" relative="1" as="geometry">
            <mxPoint x="161" y="434" as="sourcePoint" />
            <mxPoint x="211" y="384" as="targetPoint" />
          </mxGeometry>
        </mxCell>
        <mxCell id="ro1XtTDIESp_CkTBeO06-37" value="" style="endArrow=none;html=1;rounded=0;entryX=1;entryY=0.5;entryDx=0;entryDy=0;exitX=0.5;exitY=0;exitDx=0;exitDy=0;" edge="1" parent="1" source="ro1XtTDIESp_CkTBeO06-1" target="ro1XtTDIESp_CkTBeO06-29">
          <mxGeometry width="50" height="50" relative="1" as="geometry">
            <mxPoint x="161" y="434" as="sourcePoint" />
            <mxPoint x="112.00000000000273" y="389" as="targetPoint" />
          </mxGeometry>
        </mxCell>
        <mxCell id="ro1XtTDIESp_CkTBeO06-38" value="" style="endArrow=none;html=1;rounded=0;entryX=1;entryY=1;entryDx=0;entryDy=0;exitX=0.5;exitY=0;exitDx=0;exitDy=0;" edge="1" parent="1" source="ro1XtTDIESp_CkTBeO06-1" target="ro1XtTDIESp_CkTBeO06-21">
          <mxGeometry width="50" height="50" relative="1" as="geometry">
            <mxPoint x="201" y="474" as="sourcePoint" />
            <mxPoint x="211" y="384" as="targetPoint" />
          </mxGeometry>
        </mxCell>
        <mxCell id="ro1XtTDIESp_CkTBeO06-40" value="" style="endArrow=none;html=1;rounded=0;entryX=0;entryY=0.5;entryDx=0;entryDy=0;exitX=0.5;exitY=0;exitDx=0;exitDy=0;" edge="1" parent="1" source="ro1XtTDIESp_CkTBeO06-1" target="ro1XtTDIESp_CkTBeO06-25">
          <mxGeometry width="50" height="50" relative="1" as="geometry">
            <mxPoint x="161" y="434" as="sourcePoint" />
            <mxPoint x="211" y="384" as="targetPoint" />
          </mxGeometry>
        </mxCell>
        <mxCell id="ro1XtTDIESp_CkTBeO06-41" value="" style="endArrow=none;html=1;rounded=0;entryX=0;entryY=0.5;entryDx=0;entryDy=0;exitX=0.5;exitY=0;exitDx=0;exitDy=0;" edge="1" parent="1" source="ro1XtTDIESp_CkTBeO06-1" target="ro1XtTDIESp_CkTBeO06-26">
          <mxGeometry width="50" height="50" relative="1" as="geometry">
            <mxPoint x="161" y="434" as="sourcePoint" />
            <mxPoint x="211" y="384" as="targetPoint" />
          </mxGeometry>
        </mxCell>
        <mxCell id="ro1XtTDIESp_CkTBeO06-42" value="" style="endArrow=none;html=1;rounded=0;entryX=0;entryY=0.5;entryDx=0;entryDy=0;exitX=0.5;exitY=0;exitDx=0;exitDy=0;" edge="1" parent="1" source="ro1XtTDIESp_CkTBeO06-1" target="ro1XtTDIESp_CkTBeO06-27">
          <mxGeometry width="50" height="50" relative="1" as="geometry">
            <mxPoint x="161" y="434" as="sourcePoint" />
            <mxPoint x="211" y="384" as="targetPoint" />
          </mxGeometry>
        </mxCell>
        <mxCell id="ro1XtTDIESp_CkTBeO06-44" value="upload" style="ellipse;whiteSpace=wrap;html=1;" vertex="1" parent="1">
          <mxGeometry x="331" y="390" width="80" height="30" as="geometry" />
        </mxCell>
        <mxCell id="ro1XtTDIESp_CkTBeO06-45" value="admin_id" style="ellipse;whiteSpace=wrap;html=1;" vertex="1" parent="1">
          <mxGeometry x="671" y="354" width="80" height="30" as="geometry" />
        </mxCell>
        <mxCell id="ro1XtTDIESp_CkTBeO06-48" value="DateJoined" style="ellipse;whiteSpace=wrap;html=1;" vertex="1" parent="1">
          <mxGeometry x="277" y="278" width="80" height="30" as="geometry" />
        </mxCell>
        <mxCell id="ro1XtTDIESp_CkTBeO06-49" value="" style="endArrow=none;html=1;rounded=0;entryX=1;entryY=0.5;entryDx=0;entryDy=0;exitX=0.5;exitY=0;exitDx=0;exitDy=0;" edge="1" parent="1" source="ro1XtTDIESp_CkTBeO06-1" target="ro1XtTDIESp_CkTBeO06-24">
          <mxGeometry width="50" height="50" relative="1" as="geometry">
            <mxPoint x="161" y="434" as="sourcePoint" />
            <mxPoint x="211" y="384" as="targetPoint" />
          </mxGeometry>
        </mxCell>
        <mxCell id="ro1XtTDIESp_CkTBeO06-50" value="" style="endArrow=none;html=1;rounded=0;entryX=0;entryY=1;entryDx=0;entryDy=0;exitX=0.5;exitY=0;exitDx=0;exitDy=0;" edge="1" parent="1" source="ro1XtTDIESp_CkTBeO06-1" target="ro1XtTDIESp_CkTBeO06-48">
          <mxGeometry width="50" height="50" relative="1" as="geometry">
            <mxPoint x="161" y="434" as="sourcePoint" />
            <mxPoint x="211" y="384" as="targetPoint" />
          </mxGeometry>
        </mxCell>
        <mxCell id="ro1XtTDIESp_CkTBeO06-52" value="" style="endArrow=none;html=1;rounded=0;entryX=0;entryY=0.5;entryDx=0;entryDy=0;exitX=0.5;exitY=0;exitDx=0;exitDy=0;" edge="1" parent="1" source="ro1XtTDIESp_CkTBeO06-1" target="ro1XtTDIESp_CkTBeO06-44">
          <mxGeometry width="50" height="50" relative="1" as="geometry">
            <mxPoint x="161" y="434" as="sourcePoint" />
            <mxPoint x="211" y="384" as="targetPoint" />
          </mxGeometry>
        </mxCell>
        <mxCell id="ro1XtTDIESp_CkTBeO06-54" value="" style="endArrow=none;html=1;rounded=0;entryX=0.5;entryY=1;entryDx=0;entryDy=0;exitX=0.5;exitY=0;exitDx=0;exitDy=0;" edge="1" parent="1" source="ro1XtTDIESp_CkTBeO06-2" target="ro1XtTDIESp_CkTBeO06-45">
          <mxGeometry width="50" height="50" relative="1" as="geometry">
            <mxPoint x="511" y="438" as="sourcePoint" />
            <mxPoint x="621" y="390" as="targetPoint" />
          </mxGeometry>
        </mxCell>
        <mxCell id="ro1XtTDIESp_CkTBeO06-55" value="" style="endArrow=none;html=1;rounded=0;entryX=0;entryY=0.5;entryDx=0;entryDy=0;exitX=1;exitY=0.5;exitDx=0;exitDy=0;" edge="1" parent="1" source="ro1XtTDIESp_CkTBeO06-1" target="ro1XtTDIESp_CkTBeO06-7">
          <mxGeometry width="50" height="50" relative="1" as="geometry">
            <mxPoint x="341" y="534" as="sourcePoint" />
            <mxPoint x="391" y="484" as="targetPoint" />
          </mxGeometry>
        </mxCell>
        <mxCell id="ro1XtTDIESp_CkTBeO06-57" value="" style="endArrow=none;html=1;rounded=0;entryX=0;entryY=0.5;entryDx=0;entryDy=0;exitX=1;exitY=0.5;exitDx=0;exitDy=0;" edge="1" parent="1" source="ro1XtTDIESp_CkTBeO06-7" target="ro1XtTDIESp_CkTBeO06-2">
          <mxGeometry width="50" height="50" relative="1" as="geometry">
            <mxPoint x="491" y="493" as="sourcePoint" />
            <mxPoint x="641" y="495" as="targetPoint" />
          </mxGeometry>
        </mxCell>
        <mxCell id="ro1XtTDIESp_CkTBeO06-61" value="premium" style="ellipse;whiteSpace=wrap;html=1;" vertex="1" parent="1">
          <mxGeometry x="113" y="160" width="80" height="30" as="geometry" />
        </mxCell>
        <mxCell id="ro1XtTDIESp_CkTBeO06-62" value="normal" style="ellipse;whiteSpace=wrap;html=1;" vertex="1" parent="1">
          <mxGeometry x="10" y="160" width="80" height="30" as="geometry" />
        </mxCell>
        <mxCell id="ro1XtTDIESp_CkTBeO06-63" value="" style="endArrow=none;html=1;rounded=0;entryX=0.5;entryY=1;entryDx=0;entryDy=0;exitX=0.5;exitY=0;exitDx=0;exitDy=0;" edge="1" parent="1" source="ro1XtTDIESp_CkTBeO06-21" target="ro1XtTDIESp_CkTBeO06-61">
          <mxGeometry width="50" height="50" relative="1" as="geometry">
            <mxPoint x="341.87" y="278" as="sourcePoint" />
            <mxPoint x="259.87" y="89" as="targetPoint" />
          </mxGeometry>
        </mxCell>
        <mxCell id="ro1XtTDIESp_CkTBeO06-64" value="" style="endArrow=none;html=1;rounded=0;entryX=0.5;entryY=1;entryDx=0;entryDy=0;exitX=0.5;exitY=0;exitDx=0;exitDy=0;" edge="1" parent="1" source="ro1XtTDIESp_CkTBeO06-21" target="ro1XtTDIESp_CkTBeO06-62">
          <mxGeometry width="50" height="50" relative="1" as="geometry">
            <mxPoint x="50" y="238" as="sourcePoint" />
            <mxPoint x="113" y="180" as="targetPoint" />
          </mxGeometry>
        </mxCell>
        <mxCell id="ro1XtTDIESp_CkTBeO06-65" value="" style="endArrow=none;html=1;rounded=0;entryX=0.92;entryY=1.022;entryDx=0;entryDy=0;entryPerimeter=0;" edge="1" parent="1" target="ro1XtTDIESp_CkTBeO06-4">
          <mxGeometry width="50" height="50" relative="1" as="geometry">
            <mxPoint x="250" y="1150" as="sourcePoint" />
            <mxPoint x="220" y="870" as="targetPoint" />
            <Array as="points">
              <mxPoint x="250" y="870" />
            </Array>
          </mxGeometry>
        </mxCell>
        <mxCell id="ro1XtTDIESp_CkTBeO06-66" value="PDFID" style="ellipse;whiteSpace=wrap;html=1;" vertex="1" parent="1">
          <mxGeometry x="66" y="817" width="80" height="30" as="geometry" />
        </mxCell>
        <mxCell id="ro1XtTDIESp_CkTBeO06-67" value="Title" style="ellipse;whiteSpace=wrap;html=1;" vertex="1" parent="1">
          <mxGeometry x="66" y="853" width="80" height="30" as="geometry" />
        </mxCell>
        <mxCell id="ro1XtTDIESp_CkTBeO06-68" value="Description" style="ellipse;whiteSpace=wrap;html=1;" vertex="1" parent="1">
          <mxGeometry x="65" y="890" width="80" height="30" as="geometry" />
        </mxCell>
        <mxCell id="ro1XtTDIESp_CkTBeO06-69" value="UploadDate" style="ellipse;whiteSpace=wrap;html=1;" vertex="1" parent="1">
          <mxGeometry x="66" y="930" width="80" height="30" as="geometry" />
        </mxCell>
        <mxCell id="ro1XtTDIESp_CkTBeO06-70" value="FileSize" style="ellipse;whiteSpace=wrap;html=1;" vertex="1" parent="1">
          <mxGeometry x="66" y="970" width="80" height="30" as="geometry" />
        </mxCell>
        <mxCell id="ro1XtTDIESp_CkTBeO06-71" value="FilePath" style="ellipse;whiteSpace=wrap;html=1;" vertex="1" parent="1">
          <mxGeometry x="66" y="1010" width="80" height="30" as="geometry" />
        </mxCell>
        <mxCell id="ro1XtTDIESp_CkTBeO06-72" value="UploadedBy" style="ellipse;whiteSpace=wrap;html=1;" vertex="1" parent="1">
          <mxGeometry x="66" y="1050" width="80" height="30" as="geometry" />
        </mxCell>
        <mxCell id="ro1XtTDIESp_CkTBeO06-73" value="ViewsCount" style="ellipse;whiteSpace=wrap;html=1;" vertex="1" parent="1">
          <mxGeometry x="66" y="1090" width="80" height="30" as="geometry" />
        </mxCell>
        <mxCell id="ro1XtTDIESp_CkTBeO06-74" value="Rating" style="ellipse;whiteSpace=wrap;html=1;" vertex="1" parent="1">
          <mxGeometry x="66" y="1135" width="80" height="30" as="geometry" />
        </mxCell>
        <mxCell id="ro1XtTDIESp_CkTBeO06-75" value="" style="endArrow=none;html=1;rounded=0;exitX=1;exitY=0.5;exitDx=0;exitDy=0;" edge="1" parent="1">
          <mxGeometry width="50" height="50" relative="1" as="geometry">
            <mxPoint x="416" y="832" as="sourcePoint" />
            <mxPoint x="520" y="832" as="targetPoint" />
          </mxGeometry>
        </mxCell>
        <mxCell id="ro1XtTDIESp_CkTBeO06-76" value="" style="endArrow=none;html=1;rounded=0;exitX=1;exitY=0.5;exitDx=0;exitDy=0;" edge="1" parent="1">
          <mxGeometry width="50" height="50" relative="1" as="geometry">
            <mxPoint x="146" y="867.76" as="sourcePoint" />
            <mxPoint x="250" y="867.76" as="targetPoint" />
          </mxGeometry>
        </mxCell>
        <mxCell id="ro1XtTDIESp_CkTBeO06-77" value="" style="endArrow=none;html=1;rounded=0;exitX=1;exitY=0.5;exitDx=0;exitDy=0;" edge="1" parent="1">
          <mxGeometry width="50" height="50" relative="1" as="geometry">
            <mxPoint x="145" y="904.62" as="sourcePoint" />
            <mxPoint x="249" y="904.62" as="targetPoint" />
          </mxGeometry>
        </mxCell>
        <mxCell id="ro1XtTDIESp_CkTBeO06-78" value="" style="endArrow=none;html=1;rounded=0;exitX=1;exitY=0.5;exitDx=0;exitDy=0;" edge="1" parent="1">
          <mxGeometry width="50" height="50" relative="1" as="geometry">
            <mxPoint x="145" y="944.62" as="sourcePoint" />
            <mxPoint x="249" y="944.62" as="targetPoint" />
          </mxGeometry>
        </mxCell>
        <mxCell id="ro1XtTDIESp_CkTBeO06-79" value="" style="endArrow=none;html=1;rounded=0;exitX=1;exitY=0.5;exitDx=0;exitDy=0;" edge="1" parent="1">
          <mxGeometry width="50" height="50" relative="1" as="geometry">
            <mxPoint x="146" y="984.62" as="sourcePoint" />
            <mxPoint x="250" y="984.62" as="targetPoint" />
          </mxGeometry>
        </mxCell>
        <mxCell id="ro1XtTDIESp_CkTBeO06-81" value="" style="endArrow=none;html=1;rounded=0;exitX=1;exitY=0.5;exitDx=0;exitDy=0;" edge="1" parent="1">
          <mxGeometry width="50" height="50" relative="1" as="geometry">
            <mxPoint x="145" y="1024.62" as="sourcePoint" />
            <mxPoint x="249" y="1024.62" as="targetPoint" />
          </mxGeometry>
        </mxCell>
        <mxCell id="ro1XtTDIESp_CkTBeO06-82" value="" style="endArrow=none;html=1;rounded=0;exitX=1;exitY=0.5;exitDx=0;exitDy=0;" edge="1" parent="1">
          <mxGeometry width="50" height="50" relative="1" as="geometry">
            <mxPoint x="146" y="1064.62" as="sourcePoint" />
            <mxPoint x="250" y="1064.62" as="targetPoint" />
          </mxGeometry>
        </mxCell>
        <mxCell id="ro1XtTDIESp_CkTBeO06-83" value="" style="endArrow=none;html=1;rounded=0;exitX=1;exitY=0.5;exitDx=0;exitDy=0;" edge="1" parent="1">
          <mxGeometry width="50" height="50" relative="1" as="geometry">
            <mxPoint x="146" y="1104.62" as="sourcePoint" />
            <mxPoint x="250" y="1104.62" as="targetPoint" />
          </mxGeometry>
        </mxCell>
        <mxCell id="ro1XtTDIESp_CkTBeO06-84" value="" style="endArrow=none;html=1;rounded=0;exitX=1;exitY=0.5;exitDx=0;exitDy=0;" edge="1" parent="1">
          <mxGeometry width="50" height="50" relative="1" as="geometry">
            <mxPoint x="146" y="1149.62" as="sourcePoint" />
            <mxPoint x="250" y="1149.62" as="targetPoint" />
          </mxGeometry>
        </mxCell>
        <mxCell id="ro1XtTDIESp_CkTBeO06-87" value="Review" style="rounded=0;whiteSpace=wrap;html=1;" vertex="1" parent="1">
          <mxGeometry x="430" y="700" width="120" height="60" as="geometry" />
        </mxCell>
        <mxCell id="ro1XtTDIESp_CkTBeO06-107" value="" style="endArrow=none;html=1;rounded=0;entryX=0.75;entryY=1;entryDx=0;entryDy=0;" edge="1" parent="1" target="ro1XtTDIESp_CkTBeO06-87">
          <mxGeometry width="50" height="50" relative="1" as="geometry">
            <mxPoint x="520" y="1040" as="sourcePoint" />
            <mxPoint x="521" y="790" as="targetPoint" />
            <Array as="points">
              <mxPoint x="520" y="855" />
            </Array>
          </mxGeometry>
        </mxCell>
        <mxCell id="ro1XtTDIESp_CkTBeO06-108" value="ReviewID" style="ellipse;whiteSpace=wrap;html=1;" vertex="1" parent="1">
          <mxGeometry x="336" y="817" width="80" height="30" as="geometry" />
        </mxCell>
        <mxCell id="ro1XtTDIESp_CkTBeO06-109" value="" style="endArrow=none;html=1;rounded=0;exitX=1;exitY=0.5;exitDx=0;exitDy=0;" edge="1" parent="1">
          <mxGeometry width="50" height="50" relative="1" as="geometry">
            <mxPoint x="146" y="831.75" as="sourcePoint" />
            <mxPoint x="250" y="832" as="targetPoint" />
          </mxGeometry>
        </mxCell>
        <mxCell id="ro1XtTDIESp_CkTBeO06-110" value="ReviewText" style="ellipse;whiteSpace=wrap;html=1;" vertex="1" parent="1">
          <mxGeometry x="336" y="860" width="80" height="30" as="geometry" />
        </mxCell>
        <mxCell id="ro1XtTDIESp_CkTBeO06-111" value="" style="endArrow=none;html=1;rounded=0;exitX=1;exitY=0.5;exitDx=0;exitDy=0;" edge="1" parent="1">
          <mxGeometry width="50" height="50" relative="1" as="geometry">
            <mxPoint x="416" y="875" as="sourcePoint" />
            <mxPoint x="520" y="875" as="targetPoint" />
          </mxGeometry>
        </mxCell>
        <mxCell id="ro1XtTDIESp_CkTBeO06-112" value="Rating" style="ellipse;whiteSpace=wrap;html=1;" vertex="1" parent="1">
          <mxGeometry x="336" y="900" width="80" height="30" as="geometry" />
        </mxCell>
        <mxCell id="ro1XtTDIESp_CkTBeO06-113" value="" style="endArrow=none;html=1;rounded=0;exitX=1;exitY=0.5;exitDx=0;exitDy=0;" edge="1" parent="1">
          <mxGeometry width="50" height="50" relative="1" as="geometry">
            <mxPoint x="416" y="915" as="sourcePoint" />
            <mxPoint x="520" y="915" as="targetPoint" />
          </mxGeometry>
        </mxCell>
        <mxCell id="ro1XtTDIESp_CkTBeO06-114" value="ReviedDate" style="ellipse;whiteSpace=wrap;html=1;" vertex="1" parent="1">
          <mxGeometry x="336" y="940" width="80" height="30" as="geometry" />
        </mxCell>
        <mxCell id="ro1XtTDIESp_CkTBeO06-115" value="" style="endArrow=none;html=1;rounded=0;exitX=1;exitY=0.5;exitDx=0;exitDy=0;" edge="1" parent="1">
          <mxGeometry width="50" height="50" relative="1" as="geometry">
            <mxPoint x="416" y="955" as="sourcePoint" />
            <mxPoint x="520" y="955" as="targetPoint" />
          </mxGeometry>
        </mxCell>
        <mxCell id="ro1XtTDIESp_CkTBeO06-116" value="UserID" style="ellipse;whiteSpace=wrap;html=1;" vertex="1" parent="1">
          <mxGeometry x="336" y="980" width="80" height="30" as="geometry" />
        </mxCell>
        <mxCell id="ro1XtTDIESp_CkTBeO06-117" value="" style="endArrow=none;html=1;rounded=0;exitX=1;exitY=0.5;exitDx=0;exitDy=0;" edge="1" parent="1">
          <mxGeometry width="50" height="50" relative="1" as="geometry">
            <mxPoint x="416" y="995" as="sourcePoint" />
            <mxPoint x="520" y="995" as="targetPoint" />
          </mxGeometry>
        </mxCell>
        <mxCell id="ro1XtTDIESp_CkTBeO06-118" value="PDFID" style="ellipse;whiteSpace=wrap;html=1;" vertex="1" parent="1">
          <mxGeometry x="336" y="1020" width="80" height="30" as="geometry" />
        </mxCell>
        <mxCell id="ro1XtTDIESp_CkTBeO06-119" value="" style="endArrow=none;html=1;rounded=0;exitX=1;exitY=0.5;exitDx=0;exitDy=0;" edge="1" parent="1">
          <mxGeometry width="50" height="50" relative="1" as="geometry">
            <mxPoint x="416" y="1035" as="sourcePoint" />
            <mxPoint x="520" y="1035" as="targetPoint" />
          </mxGeometry>
        </mxCell>
        <mxCell id="ro1XtTDIESp_CkTBeO06-126" value="AdminID" style="ellipse;whiteSpace=wrap;html=1;" vertex="1" parent="1">
          <mxGeometry x="550" y="1124" width="80" height="30" as="geometry" />
        </mxCell>
        <mxCell id="ro1XtTDIESp_CkTBeO06-127" value="PaymentStatus" style="ellipse;whiteSpace=wrap;html=1;" vertex="1" parent="1">
          <mxGeometry x="550" y="1084" width="80" height="30" as="geometry" />
        </mxCell>
        <mxCell id="ro1XtTDIESp_CkTBeO06-128" value="SubscriptionEndDate" style="ellipse;whiteSpace=wrap;html=1;" vertex="1" parent="1">
          <mxGeometry x="550" y="1044" width="80" height="30" as="geometry" />
        </mxCell>
        <mxCell id="ro1XtTDIESp_CkTBeO06-129" value="SubscriptionStartDate" style="ellipse;whiteSpace=wrap;html=1;" vertex="1" parent="1">
          <mxGeometry x="550" y="1004" width="80" height="30" as="geometry" />
        </mxCell>
        <mxCell id="ro1XtTDIESp_CkTBeO06-130" value="UserID" style="ellipse;whiteSpace=wrap;html=1;" vertex="1" parent="1">
          <mxGeometry x="550" y="964" width="80" height="30" as="geometry" />
        </mxCell>
        <mxCell id="ro1XtTDIESp_CkTBeO06-131" value="SubscriptionID" style="ellipse;whiteSpace=wrap;html=1;" vertex="1" parent="1">
          <mxGeometry x="550" y="921" width="80" height="30" as="geometry" />
        </mxCell>
        <mxCell id="ro1XtTDIESp_CkTBeO06-132" value="Subscription" style="rounded=0;whiteSpace=wrap;html=1;" vertex="1" parent="1">
          <mxGeometry x="644" y="804" width="120" height="60" as="geometry" />
        </mxCell>
        <mxCell id="ro1XtTDIESp_CkTBeO06-133" value="" style="endArrow=none;html=1;rounded=0;entryX=0.75;entryY=1;entryDx=0;entryDy=0;" edge="1" target="ro1XtTDIESp_CkTBeO06-132" parent="1">
          <mxGeometry width="50" height="50" relative="1" as="geometry">
            <mxPoint x="734" y="1140" as="sourcePoint" />
            <mxPoint x="735" y="894" as="targetPoint" />
            <Array as="points">
              <mxPoint x="734" y="959" />
            </Array>
          </mxGeometry>
        </mxCell>
        <mxCell id="ro1XtTDIESp_CkTBeO06-134" value="" style="endArrow=none;html=1;rounded=0;exitX=1;exitY=0.5;exitDx=0;exitDy=0;" edge="1" parent="1">
          <mxGeometry width="50" height="50" relative="1" as="geometry">
            <mxPoint x="630" y="936" as="sourcePoint" />
            <mxPoint x="734" y="936" as="targetPoint" />
          </mxGeometry>
        </mxCell>
        <mxCell id="ro1XtTDIESp_CkTBeO06-135" value="" style="endArrow=none;html=1;rounded=0;exitX=1;exitY=0.5;exitDx=0;exitDy=0;" edge="1" parent="1">
          <mxGeometry width="50" height="50" relative="1" as="geometry">
            <mxPoint x="630" y="979" as="sourcePoint" />
            <mxPoint x="734" y="979" as="targetPoint" />
          </mxGeometry>
        </mxCell>
        <mxCell id="ro1XtTDIESp_CkTBeO06-136" value="" style="endArrow=none;html=1;rounded=0;exitX=1;exitY=0.5;exitDx=0;exitDy=0;" edge="1" parent="1">
          <mxGeometry width="50" height="50" relative="1" as="geometry">
            <mxPoint x="630" y="1019" as="sourcePoint" />
            <mxPoint x="734" y="1019" as="targetPoint" />
          </mxGeometry>
        </mxCell>
        <mxCell id="ro1XtTDIESp_CkTBeO06-137" value="" style="endArrow=none;html=1;rounded=0;exitX=1;exitY=0.5;exitDx=0;exitDy=0;" edge="1" parent="1">
          <mxGeometry width="50" height="50" relative="1" as="geometry">
            <mxPoint x="630" y="1059" as="sourcePoint" />
            <mxPoint x="734" y="1059" as="targetPoint" />
          </mxGeometry>
        </mxCell>
        <mxCell id="ro1XtTDIESp_CkTBeO06-138" value="" style="endArrow=none;html=1;rounded=0;exitX=1;exitY=0.5;exitDx=0;exitDy=0;" edge="1" parent="1">
          <mxGeometry width="50" height="50" relative="1" as="geometry">
            <mxPoint x="630" y="1099" as="sourcePoint" />
            <mxPoint x="734" y="1099" as="targetPoint" />
          </mxGeometry>
        </mxCell>
        <mxCell id="ro1XtTDIESp_CkTBeO06-139" value="" style="endArrow=none;html=1;rounded=0;exitX=1;exitY=0.5;exitDx=0;exitDy=0;" edge="1" parent="1">
          <mxGeometry width="50" height="50" relative="1" as="geometry">
            <mxPoint x="630" y="1139" as="sourcePoint" />
            <mxPoint x="734" y="1139" as="targetPoint" />
          </mxGeometry>
        </mxCell>
        <mxCell id="ro1XtTDIESp_CkTBeO06-142" value="PDFID" style="ellipse;whiteSpace=wrap;html=1;" vertex="1" parent="1">
          <mxGeometry x="330" y="1374" width="80" height="30" as="geometry" />
        </mxCell>
        <mxCell id="ro1XtTDIESp_CkTBeO06-143" value="UserID" style="ellipse;whiteSpace=wrap;html=1;" vertex="1" parent="1">
          <mxGeometry x="330" y="1334" width="80" height="30" as="geometry" />
        </mxCell>
        <mxCell id="ro1XtTDIESp_CkTBeO06-144" value="ReviedDate" style="ellipse;whiteSpace=wrap;html=1;" vertex="1" parent="1">
          <mxGeometry x="330" y="1294" width="80" height="30" as="geometry" />
        </mxCell>
        <mxCell id="ro1XtTDIESp_CkTBeO06-145" value="Rating" style="ellipse;whiteSpace=wrap;html=1;" vertex="1" parent="1">
          <mxGeometry x="330" y="1254" width="80" height="30" as="geometry" />
        </mxCell>
        <mxCell id="ro1XtTDIESp_CkTBeO06-146" value="ReviewText" style="ellipse;whiteSpace=wrap;html=1;" vertex="1" parent="1">
          <mxGeometry x="330" y="1214" width="80" height="30" as="geometry" />
        </mxCell>
        <mxCell id="ro1XtTDIESp_CkTBeO06-147" value="ReviewID" style="ellipse;whiteSpace=wrap;html=1;" vertex="1" parent="1">
          <mxGeometry x="330" y="1171" width="80" height="30" as="geometry" />
        </mxCell>
        <mxCell id="ro1XtTDIESp_CkTBeO06-148" value="" style="endArrow=none;html=1;rounded=0;exitX=1;exitY=0.5;exitDx=0;exitDy=0;" edge="1" parent="1">
          <mxGeometry width="50" height="50" relative="1" as="geometry">
            <mxPoint x="410" y="1186" as="sourcePoint" />
            <mxPoint x="514" y="1186" as="targetPoint" />
          </mxGeometry>
        </mxCell>
        <mxCell id="ro1XtTDIESp_CkTBeO06-149" value="" style="endArrow=none;html=1;rounded=0;exitX=1;exitY=0.5;exitDx=0;exitDy=0;" edge="1" parent="1">
          <mxGeometry width="50" height="50" relative="1" as="geometry">
            <mxPoint x="410" y="1229" as="sourcePoint" />
            <mxPoint x="514" y="1229" as="targetPoint" />
          </mxGeometry>
        </mxCell>
        <mxCell id="ro1XtTDIESp_CkTBeO06-150" value="" style="endArrow=none;html=1;rounded=0;exitX=1;exitY=0.5;exitDx=0;exitDy=0;" edge="1" parent="1">
          <mxGeometry width="50" height="50" relative="1" as="geometry">
            <mxPoint x="410" y="1269" as="sourcePoint" />
            <mxPoint x="514" y="1269" as="targetPoint" />
          </mxGeometry>
        </mxCell>
        <mxCell id="ro1XtTDIESp_CkTBeO06-151" value="" style="endArrow=none;html=1;rounded=0;exitX=1;exitY=0.5;exitDx=0;exitDy=0;" edge="1" parent="1">
          <mxGeometry width="50" height="50" relative="1" as="geometry">
            <mxPoint x="410" y="1309" as="sourcePoint" />
            <mxPoint x="514" y="1309" as="targetPoint" />
          </mxGeometry>
        </mxCell>
        <mxCell id="ro1XtTDIESp_CkTBeO06-152" value="" style="endArrow=none;html=1;rounded=0;exitX=1;exitY=0.5;exitDx=0;exitDy=0;" edge="1" parent="1">
          <mxGeometry width="50" height="50" relative="1" as="geometry">
            <mxPoint x="410" y="1349" as="sourcePoint" />
            <mxPoint x="514" y="1349" as="targetPoint" />
          </mxGeometry>
        </mxCell>
        <mxCell id="ro1XtTDIESp_CkTBeO06-153" value="" style="endArrow=none;html=1;rounded=0;exitX=1;exitY=0.5;exitDx=0;exitDy=0;" edge="1" parent="1">
          <mxGeometry width="50" height="50" relative="1" as="geometry">
            <mxPoint x="410" y="1389" as="sourcePoint" />
            <mxPoint x="514" y="1389" as="targetPoint" />
          </mxGeometry>
        </mxCell>
        <mxCell id="ro1XtTDIESp_CkTBeO06-154" value="" style="endArrow=none;html=1;rounded=0;entryX=0.75;entryY=1;entryDx=0;entryDy=0;" edge="1" parent="1">
          <mxGeometry width="50" height="50" relative="1" as="geometry">
            <mxPoint x="514" y="1394" as="sourcePoint" />
            <mxPoint x="514" y="1114" as="targetPoint" />
            <Array as="points">
              <mxPoint x="514" y="1209" />
            </Array>
          </mxGeometry>
        </mxCell>
        <mxCell id="ro1XtTDIESp_CkTBeO06-155" value="PDFID" style="ellipse;whiteSpace=wrap;html=1;" vertex="1" parent="1">
          <mxGeometry x="480" y="354" width="80" height="30" as="geometry" />
        </mxCell>
        <mxCell id="ro1XtTDIESp_CkTBeO06-156" value="UserID" style="ellipse;whiteSpace=wrap;html=1;" vertex="1" parent="1">
          <mxGeometry x="480" y="314" width="80" height="30" as="geometry" />
        </mxCell>
        <mxCell id="ro1XtTDIESp_CkTBeO06-157" value="ReviedDate" style="ellipse;whiteSpace=wrap;html=1;" vertex="1" parent="1">
          <mxGeometry x="480" y="274" width="80" height="30" as="geometry" />
        </mxCell>
        <mxCell id="ro1XtTDIESp_CkTBeO06-158" value="Rating" style="ellipse;whiteSpace=wrap;html=1;" vertex="1" parent="1">
          <mxGeometry x="480" y="234" width="80" height="30" as="geometry" />
        </mxCell>
        <mxCell id="ro1XtTDIESp_CkTBeO06-159" value="ReviewText" style="ellipse;whiteSpace=wrap;html=1;" vertex="1" parent="1">
          <mxGeometry x="480" y="194" width="80" height="30" as="geometry" />
        </mxCell>
        <mxCell id="ro1XtTDIESp_CkTBeO06-160" value="ReviewID" style="ellipse;whiteSpace=wrap;html=1;" vertex="1" parent="1">
          <mxGeometry x="480" y="151" width="80" height="30" as="geometry" />
        </mxCell>
        <mxCell id="ro1XtTDIESp_CkTBeO06-161" value="" style="endArrow=none;html=1;rounded=0;exitX=1;exitY=0.5;exitDx=0;exitDy=0;" edge="1" parent="1">
          <mxGeometry width="50" height="50" relative="1" as="geometry">
            <mxPoint x="560" y="166" as="sourcePoint" />
            <mxPoint x="664" y="166" as="targetPoint" />
          </mxGeometry>
        </mxCell>
        <mxCell id="ro1XtTDIESp_CkTBeO06-162" value="" style="endArrow=none;html=1;rounded=0;exitX=1;exitY=0.5;exitDx=0;exitDy=0;" edge="1" parent="1">
          <mxGeometry width="50" height="50" relative="1" as="geometry">
            <mxPoint x="560" y="209" as="sourcePoint" />
            <mxPoint x="664" y="209" as="targetPoint" />
          </mxGeometry>
        </mxCell>
        <mxCell id="ro1XtTDIESp_CkTBeO06-163" value="" style="endArrow=none;html=1;rounded=0;exitX=1;exitY=0.5;exitDx=0;exitDy=0;" edge="1" parent="1">
          <mxGeometry width="50" height="50" relative="1" as="geometry">
            <mxPoint x="560" y="249" as="sourcePoint" />
            <mxPoint x="664" y="249" as="targetPoint" />
          </mxGeometry>
        </mxCell>
        <mxCell id="ro1XtTDIESp_CkTBeO06-164" value="" style="endArrow=none;html=1;rounded=0;exitX=1;exitY=0.5;exitDx=0;exitDy=0;" edge="1" parent="1">
          <mxGeometry width="50" height="50" relative="1" as="geometry">
            <mxPoint x="560" y="289" as="sourcePoint" />
            <mxPoint x="664" y="289" as="targetPoint" />
          </mxGeometry>
        </mxCell>
        <mxCell id="ro1XtTDIESp_CkTBeO06-165" value="" style="endArrow=none;html=1;rounded=0;exitX=1;exitY=0.5;exitDx=0;exitDy=0;" edge="1" parent="1">
          <mxGeometry width="50" height="50" relative="1" as="geometry">
            <mxPoint x="560" y="329" as="sourcePoint" />
            <mxPoint x="664" y="329" as="targetPoint" />
          </mxGeometry>
        </mxCell>
        <mxCell id="ro1XtTDIESp_CkTBeO06-166" value="" style="endArrow=none;html=1;rounded=0;exitX=1;exitY=0.5;exitDx=0;exitDy=0;" edge="1" parent="1">
          <mxGeometry width="50" height="50" relative="1" as="geometry">
            <mxPoint x="560" y="369" as="sourcePoint" />
            <mxPoint x="664" y="369" as="targetPoint" />
          </mxGeometry>
        </mxCell>
        <mxCell id="ro1XtTDIESp_CkTBeO06-167" value="" style="endArrow=none;html=1;rounded=0;entryX=0.75;entryY=1;entryDx=0;entryDy=0;" edge="1" parent="1">
          <mxGeometry width="50" height="50" relative="1" as="geometry">
            <mxPoint x="664" y="374" as="sourcePoint" />
            <mxPoint x="664" y="94" as="targetPoint" />
            <Array as="points">
              <mxPoint x="664" y="189" />
            </Array>
          </mxGeometry>
        </mxCell>
        <mxCell id="ro1XtTDIESp_CkTBeO06-168" value="Admin Action" style="rounded=0;whiteSpace=wrap;html=1;" vertex="1" parent="1">
          <mxGeometry x="394" y="1060" width="120" height="60" as="geometry" />
        </mxCell>
      </root>
    </mxGraphModel>
  </diagram>
</mxfile>
